<?xml version="1.0" encoding="utf-8" standalone="no"?>
<!DOCTYPE svg PUBLIC "-//W3C//DTD SVG 1.1//EN"
  "http://www.w3.org/Graphics/SVG/1.1/DTD/svg11.dtd">
<svg xmlns:xlink="http://www.w3.org/1999/xlink" width="576pt" height="345.6pt" viewBox="0 0 576 345.6" xmlns="http://www.w3.org/2000/svg" version="1.1">
 <metadata>
  <rdf:RDF xmlns:dc="http://purl.org/dc/elements/1.1/" xmlns:cc="http://creativecommons.org/ns#" xmlns:rdf="http://www.w3.org/1999/02/22-rdf-syntax-ns#">
   <cc:Work>
    <dc:type rdf:resource="http://purl.org/dc/dcmitype/StillImage"/>
    <dc:date>1970-01-01T00:00:00</dc:date>
    <dc:format>image/svg+xml</dc:format>
    <dc:creator>
     <cc:Agent>
      <dc:title>cpa-sim docs asset builder</dc:title>
     </cc:Agent>
    </dc:creator>
   </cc:Work>
  </rdf:RDF>
 </metadata>
 <defs>
  <style type="text/css">*{stroke-linejoin: round; stroke-linecap: butt}</style>
 </defs>
 <g id="figure_1">
  <g id="patch_1">
   <path d="M 0 345.6
L 576 345.6
L 576 0
L 0 0
z
" style="fill: #ffffff"/>
  </g>
  <g id="axes_1">
   <g id="patch_2">
    <path d="M 59.6 301.12
L 557.98382 301.12
L 557.98382 27.96
L 59.6 27.96
z
" style="fill: #ffffff"/>
   </g>
   <g id="matplotlib.axis_1">
    <g id="xtick_1">
     <g id="line2d_1">
      <path d="M 82.913939 301.12
L 82.913939 27.96
" clip-path="url(#pdc8b5c124f)" style="fill: none; stroke: #b0b0b0; stroke-opacity: 0.25; stroke-width: 0.8; stroke-linecap: square"/>
     </g>
     <g id="line2d_2">
      <defs>
       <path id="m664c054b3a" d="M 0 0
L 0 3.5
" style="stroke: #000000; stroke-width: 0.8"/>
      </defs>
      <g>
       <use xlink:href="#m664c054b3a" x="82.913939" y="301.12" style="stroke: #000000; stroke-width: 0.8"/>
      </g>
     </g>
     <g id="text_1">
      <!-- 750 -->
      <g transform="translate(72.415814 316.478281) scale(0.11 -0.11)">
       <defs>
        <path id="DejaVuSans-37" d="M 525 4666
L 3525 4666
L 3525 4397
L 1831 0
L 1172 0
L 2766 4134
L 525 4134
L 525 4666
z
" transform="scale(0.015625)"/>
        <path id="DejaVuSans-35" d="M 691 4666
L 3169 4666
L 3169 4134
L 1269 4134
L 1269 2991
Q 1406 3038 1543 3061
Q 1681 3084 1819 3084
Q 2600 3084 3056 2656
Q 3513 2228 3513 1497
Q 3513 744 3044 326
Q 2575 -91 1722 -91
Q 1428 -91 1123 -41
Q 819 9 494 109
L 494 744
Q 775 591 1075 516
Q 1375 441 1709 441
Q 2250 441 2565 725
Q 2881 1009 2881 1497
Q 2881 1984 2565 2268
Q 2250 2553 1709 2553
Q 1456 2553 1204 2497
Q 953 2441 691 2322
L 691 4666
z
" transform="scale(0.015625)"/>
        <path id="DejaVuSans-30" d="M 2034 4250
Q 1547 4250 1301 3770
Q 1056 3291 1056 2328
Q 1056 1369 1301 889
Q 1547 409 2034 409
Q 2525 409 2770 889
Q 3016 1369 3016 2328
Q 3016 3291 2770 3770
Q 2525 4250 2034 4250
z
M 2034 4750
Q 2819 4750 3233 4129
Q 3647 3509 3647 2328
Q 3647 1150 3233 529
Q 2819 -91 2034 -91
Q 1250 -91 836 529
Q 422 1150 422 2328
Q 422 3509 836 4129
Q 1250 4750 2034 4750
z
" transform="scale(0.015625)"/>
       </defs>
       <use xlink:href="#DejaVuSans-37"/>
       <use xlink:href="#DejaVuSans-35" transform="translate(63.623047 0)"/>
       <use xlink:href="#DejaVuSans-30" transform="translate(127.246094 0)"/>
      </g>
     </g>
    </g>
    <g id="xtick_2">
     <g id="line2d_3">
      <path d="M 141.697049 301.12
L 141.697049 27.96
" clip-path="url(#pdc8b5c124f)" style="fill: none; stroke: #b0b0b0; stroke-opacity: 0.25; stroke-width: 0.8; stroke-linecap: square"/>
     </g>
     <g id="line2d_4">
      <g>
       <use xlink:href="#m664c054b3a" x="141.697049" y="301.12" style="stroke: #000000; stroke-width: 0.8"/>
      </g>
     </g>
     <g id="text_2">
      <!-- 775 -->
      <g transform="translate(131.198924 316.478281) scale(0.11 -0.11)">
       <use xlink:href="#DejaVuSans-37"/>
       <use xlink:href="#DejaVuSans-37" transform="translate(63.623047 0)"/>
       <use xlink:href="#DejaVuSans-35" transform="translate(127.246094 0)"/>
      </g>
     </g>
    </g>
    <g id="xtick_3">
     <g id="line2d_5">
      <path d="M 200.480158 301.12
L 200.480158 27.96
" clip-path="url(#pdc8b5c124f)" style="fill: none; stroke: #b0b0b0; stroke-opacity: 0.25; stroke-width: 0.8; stroke-linecap: square"/>
     </g>
     <g id="line2d_6">
      <g>
       <use xlink:href="#m664c054b3a" x="200.480158" y="301.12" style="stroke: #000000; stroke-width: 0.8"/>
      </g>
     </g>
     <g id="text_3">
      <!-- 800 -->
      <g transform="translate(189.982033 316.478281) scale(0.11 -0.11)">
       <defs>
        <path id="DejaVuSans-38" d="M 2034 2216
Q 1584 2216 1326 1975
Q 1069 1734 1069 1313
Q 1069 891 1326 650
Q 1584 409 2034 409
Q 2484 409 2743 651
Q 3003 894 3003 1313
Q 3003 1734 2745 1975
Q 2488 2216 2034 2216
z
M 1403 2484
Q 997 2584 770 2862
Q 544 3141 544 3541
Q 544 4100 942 4425
Q 1341 4750 2034 4750
Q 2731 4750 3128 4425
Q 3525 4100 3525 3541
Q 3525 3141 3298 2862
Q 3072 2584 2669 2484
Q 3125 2378 3379 2068
Q 3634 1759 3634 1313
Q 3634 634 3220 271
Q 2806 -91 2034 -91
Q 1263 -91 848 271
Q 434 634 434 1313
Q 434 1759 690 2068
Q 947 2378 1403 2484
z
M 1172 3481
Q 1172 3119 1398 2916
Q 1625 2713 2034 2713
Q 2441 2713 2670 2916
Q 2900 3119 2900 3481
Q 2900 3844 2670 4047
Q 2441 4250 2034 4250
Q 1625 4250 1398 4047
Q 1172 3844 1172 3481
z
" transform="scale(0.015625)"/>
       </defs>
       <use xlink:href="#DejaVuSans-38"/>
       <use xlink:href="#DejaVuSans-30" transform="translate(63.623047 0)"/>
       <use xlink:href="#DejaVuSans-30" transform="translate(127.246094 0)"/>
      </g>
     </g>
    </g>
    <g id="xtick_4">
     <g id="line2d_7">
      <path d="M 259.263268 301.12
L 259.263268 27.96
" clip-path="url(#pdc8b5c124f)" style="fill: none; stroke: #b0b0b0; stroke-opacity: 0.25; stroke-width: 0.8; stroke-linecap: square"/>
     </g>
     <g id="line2d_8">
      <g>
       <use xlink:href="#m664c054b3a" x="259.263268" y="301.12" style="stroke: #000000; stroke-width: 0.8"/>
      </g>
     </g>
     <g id="text_4">
      <!-- 825 -->
      <g transform="translate(248.765143 316.478281) scale(0.11 -0.11)">
       <defs>
        <path id="DejaVuSans-32" d="M 1228 531
L 3431 531
L 3431 0
L 469 0
L 469 531
Q 828 903 1448 1529
Q 2069 2156 2228 2338
Q 2531 2678 2651 2914
Q 2772 3150 2772 3378
Q 2772 3750 2511 3984
Q 2250 4219 1831 4219
Q 1534 4219 1204 4116
Q 875 4013 500 3803
L 500 4441
Q 881 4594 1212 4672
Q 1544 4750 1819 4750
Q 2544 4750 2975 4387
Q 3406 4025 3406 3419
Q 3406 3131 3298 2873
Q 3191 2616 2906 2266
Q 2828 2175 2409 1742
Q 1991 1309 1228 531
z
" transform="scale(0.015625)"/>
       </defs>
       <use xlink:href="#DejaVuSans-38"/>
       <use xlink:href="#DejaVuSans-32" transform="translate(63.623047 0)"/>
       <use xlink:href="#DejaVuSans-35" transform="translate(127.246094 0)"/>
      </g>
     </g>
    </g>
    <g id="xtick_5">
     <g id="line2d_9">
      <path d="M 318.046377 301.12
L 318.046377 27.96
" clip-path="url(#pdc8b5c124f)" style="fill: none; stroke: #b0b0b0; stroke-opacity: 0.25; stroke-width: 0.8; stroke-linecap: square"/>
     </g>
     <g id="line2d_10">
      <g>
       <use xlink:href="#m664c054b3a" x="318.046377" y="301.12" style="stroke: #000000; stroke-width: 0.8"/>
      </g>
     </g>
     <g id="text_5">
      <!-- 850 -->
      <g transform="translate(307.548252 316.478281) scale(0.11 -0.11)">
       <use xlink:href="#DejaVuSans-38"/>
       <use xlink:href="#DejaVuSans-35" transform="translate(63.623047 0)"/>
       <use xlink:href="#DejaVuSans-30" transform="translate(127.246094 0)"/>
      </g>
     </g>
    </g>
    <g id="xtick_6">
     <g id="line2d_11">
      <path d="M 376.829487 301.12
L 376.829487 27.96
" clip-path="url(#pdc8b5c124f)" style="fill: none; stroke: #b0b0b0; stroke-opacity: 0.25; stroke-width: 0.8; stroke-linecap: square"/>
     </g>
     <g id="line2d_12">
      <g>
       <use xlink:href="#m664c054b3a" x="376.829487" y="301.12" style="stroke: #000000; stroke-width: 0.8"/>
      </g>
     </g>
     <g id="text_6">
      <!-- 875 -->
      <g transform="translate(366.331362 316.478281) scale(0.11 -0.11)">
       <use xlink:href="#DejaVuSans-38"/>
       <use xlink:href="#DejaVuSans-37" transform="translate(63.623047 0)"/>
       <use xlink:href="#DejaVuSans-35" transform="translate(127.246094 0)"/>
      </g>
     </g>
    </g>
    <g id="xtick_7">
     <g id="line2d_13">
      <path d="M 435.612596 301.12
L 435.612596 27.96
" clip-path="url(#pdc8b5c124f)" style="fill: none; stroke: #b0b0b0; stroke-opacity: 0.25; stroke-width: 0.8; stroke-linecap: square"/>
     </g>
     <g id="line2d_14">
      <g>
       <use xlink:href="#m664c054b3a" x="435.612596" y="301.12" style="stroke: #000000; stroke-width: 0.8"/>
      </g>
     </g>
     <g id="text_7">
      <!-- 900 -->
      <g transform="translate(425.114471 316.478281) scale(0.11 -0.11)">
       <defs>
        <path id="DejaVuSans-39" d="M 703 97
L 703 672
Q 941 559 1184 500
Q 1428 441 1663 441
Q 2288 441 2617 861
Q 2947 1281 2994 2138
Q 2813 1869 2534 1725
Q 2256 1581 1919 1581
Q 1219 1581 811 2004
Q 403 2428 403 3163
Q 403 3881 828 4315
Q 1253 4750 1959 4750
Q 2769 4750 3195 4129
Q 3622 3509 3622 2328
Q 3622 1225 3098 567
Q 2575 -91 1691 -91
Q 1453 -91 1209 -44
Q 966 3 703 97
z
M 1959 2075
Q 2384 2075 2632 2365
Q 2881 2656 2881 3163
Q 2881 3666 2632 3958
Q 2384 4250 1959 4250
Q 1534 4250 1286 3958
Q 1038 3666 1038 3163
Q 1038 2656 1286 2365
Q 1534 2075 1959 2075
z
" transform="scale(0.015625)"/>
       </defs>
       <use xlink:href="#DejaVuSans-39"/>
       <use xlink:href="#DejaVuSans-30" transform="translate(63.623047 0)"/>
       <use xlink:href="#DejaVuSans-30" transform="translate(127.246094 0)"/>
      </g>
     </g>
    </g>
    <g id="xtick_8">
     <g id="line2d_15">
      <path d="M 494.395706 301.12
L 494.395706 27.96
" clip-path="url(#pdc8b5c124f)" style="fill: none; stroke: #b0b0b0; stroke-opacity: 0.25; stroke-width: 0.8; stroke-linecap: square"/>
     </g>
     <g id="line2d_16">
      <g>
       <use xlink:href="#m664c054b3a" x="494.395706" y="301.12" style="stroke: #000000; stroke-width: 0.8"/>
      </g>
     </g>
     <g id="text_8">
      <!-- 925 -->
      <g transform="translate(483.897581 316.478281) scale(0.11 -0.11)">
       <use xlink:href="#DejaVuSans-39"/>
       <use xlink:href="#DejaVuSans-32" transform="translate(63.623047 0)"/>
       <use xlink:href="#DejaVuSans-35" transform="translate(127.246094 0)"/>
      </g>
     </g>
    </g>
    <g id="xtick_9">
     <g id="line2d_17">
      <path d="M 553.178815 301.12
L 553.178815 27.96
" clip-path="url(#pdc8b5c124f)" style="fill: none; stroke: #b0b0b0; stroke-opacity: 0.25; stroke-width: 0.8; stroke-linecap: square"/>
     </g>
     <g id="line2d_18">
      <g>
       <use xlink:href="#m664c054b3a" x="553.178815" y="301.12" style="stroke: #000000; stroke-width: 0.8"/>
      </g>
     </g>
     <g id="text_9">
      <!-- 950 -->
      <g transform="translate(542.68069 316.478281) scale(0.11 -0.11)">
       <use xlink:href="#DejaVuSans-39"/>
       <use xlink:href="#DejaVuSans-35" transform="translate(63.623047 0)"/>
       <use xlink:href="#DejaVuSans-30" transform="translate(127.246094 0)"/>
      </g>
     </g>
    </g>
    <g id="text_10">
     <!-- Wavelength (nm) -->
     <g transform="translate(261.280504 331.124219) scale(0.11 -0.11)">
      <defs>
       <path id="DejaVuSans-57" d="M 213 4666
L 850 4666
L 1831 722
L 2809 4666
L 3519 4666
L 4500 722
L 5478 4666
L 6119 4666
L 4947 0
L 4153 0
L 3169 4050
L 2175 0
L 1381 0
L 213 4666
z
" transform="scale(0.015625)"/>
       <path id="DejaVuSans-61" d="M 2194 1759
Q 1497 1759 1228 1600
Q 959 1441 959 1056
Q 959 750 1161 570
Q 1363 391 1709 391
Q 2188 391 2477 730
Q 2766 1069 2766 1631
L 2766 1759
L 2194 1759
z
M 3341 1997
L 3341 0
L 2766 0
L 2766 531
Q 2569 213 2275 61
Q 1981 -91 1556 -91
Q 1019 -91 701 211
Q 384 513 384 1019
Q 384 1609 779 1909
Q 1175 2209 1959 2209
L 2766 2209
L 2766 2266
Q 2766 2663 2505 2880
Q 2244 3097 1772 3097
Q 1472 3097 1187 3025
Q 903 2953 641 2809
L 641 3341
Q 956 3463 1253 3523
Q 1550 3584 1831 3584
Q 2591 3584 2966 3190
Q 3341 2797 3341 1997
z
" transform="scale(0.015625)"/>
       <path id="DejaVuSans-76" d="M 191 3500
L 800 3500
L 1894 563
L 2988 3500
L 3597 3500
L 2284 0
L 1503 0
L 191 3500
z
" transform="scale(0.015625)"/>
       <path id="DejaVuSans-65" d="M 3597 1894
L 3597 1613
L 953 1613
Q 991 1019 1311 708
Q 1631 397 2203 397
Q 2534 397 2845 478
Q 3156 559 3463 722
L 3463 178
Q 3153 47 2828 -22
Q 2503 -91 2169 -91
Q 1331 -91 842 396
Q 353 884 353 1716
Q 353 2575 817 3079
Q 1281 3584 2069 3584
Q 2775 3584 3186 3129
Q 3597 2675 3597 1894
z
M 3022 2063
Q 3016 2534 2758 2815
Q 2500 3097 2075 3097
Q 1594 3097 1305 2825
Q 1016 2553 972 2059
L 3022 2063
z
" transform="scale(0.015625)"/>
       <path id="DejaVuSans-6c" d="M 603 4863
L 1178 4863
L 1178 0
L 603 0
L 603 4863
z
" transform="scale(0.015625)"/>
       <path id="DejaVuSans-6e" d="M 3513 2113
L 3513 0
L 2938 0
L 2938 2094
Q 2938 2591 2744 2837
Q 2550 3084 2163 3084
Q 1697 3084 1428 2787
Q 1159 2491 1159 1978
L 1159 0
L 581 0
L 581 3500
L 1159 3500
L 1159 2956
Q 1366 3272 1645 3428
Q 1925 3584 2291 3584
Q 2894 3584 3203 3211
Q 3513 2838 3513 2113
z
" transform="scale(0.015625)"/>
       <path id="DejaVuSans-67" d="M 2906 1791
Q 2906 2416 2648 2759
Q 2391 3103 1925 3103
Q 1463 3103 1205 2759
Q 947 2416 947 1791
Q 947 1169 1205 825
Q 1463 481 1925 481
Q 2391 481 2648 825
Q 2906 1169 2906 1791
z
M 3481 434
Q 3481 -459 3084 -895
Q 2688 -1331 1869 -1331
Q 1566 -1331 1297 -1286
Q 1028 -1241 775 -1147
L 775 -588
Q 1028 -725 1275 -790
Q 1522 -856 1778 -856
Q 2344 -856 2625 -561
Q 2906 -266 2906 331
L 2906 616
Q 2728 306 2450 153
Q 2172 0 1784 0
Q 1141 0 747 490
Q 353 981 353 1791
Q 353 2603 747 3093
Q 1141 3584 1784 3584
Q 2172 3584 2450 3431
Q 2728 3278 2906 2969
L 2906 3500
L 3481 3500
L 3481 434
z
" transform="scale(0.015625)"/>
       <path id="DejaVuSans-74" d="M 1172 4494
L 1172 3500
L 2356 3500
L 2356 3053
L 1172 3053
L 1172 1153
Q 1172 725 1289 603
Q 1406 481 1766 481
L 2356 481
L 2356 0
L 1766 0
Q 1100 0 847 248
Q 594 497 594 1153
L 594 3053
L 172 3053
L 172 3500
L 594 3500
L 594 4494
L 1172 4494
z
" transform="scale(0.015625)"/>
       <path id="DejaVuSans-68" d="M 3513 2113
L 3513 0
L 2938 0
L 2938 2094
Q 2938 2591 2744 2837
Q 2550 3084 2163 3084
Q 1697 3084 1428 2787
Q 1159 2491 1159 1978
L 1159 0
L 581 0
L 581 4863
L 1159 4863
L 1159 2956
Q 1366 3272 1645 3428
Q 1925 3584 2291 3584
Q 2894 3584 3203 3211
Q 3513 2838 3513 2113
z
" transform="scale(0.015625)"/>
       <path id="DejaVuSans-20" transform="scale(0.015625)"/>
       <path id="DejaVuSans-28" d="M 1984 4856
Q 1566 4138 1362 3434
Q 1159 2731 1159 2009
Q 1159 1288 1364 580
Q 1569 -128 1984 -844
L 1484 -844
Q 1016 -109 783 600
Q 550 1309 550 2009
Q 550 2706 781 3412
Q 1013 4119 1484 4856
L 1984 4856
z
" transform="scale(0.015625)"/>
       <path id="DejaVuSans-6d" d="M 3328 2828
Q 3544 3216 3844 3400
Q 4144 3584 4550 3584
Q 5097 3584 5394 3201
Q 5691 2819 5691 2113
L 5691 0
L 5113 0
L 5113 2094
Q 5113 2597 4934 2840
Q 4756 3084 4391 3084
Q 3944 3084 3684 2787
Q 3425 2491 3425 1978
L 3425 0
L 2847 0
L 2847 2094
Q 2847 2600 2669 2842
Q 2491 3084 2119 3084
Q 1678 3084 1418 2786
Q 1159 2488 1159 1978
L 1159 0
L 581 0
L 581 3500
L 1159 3500
L 1159 2956
Q 1356 3278 1631 3431
Q 1906 3584 2284 3584
Q 2666 3584 2933 3390
Q 3200 3197 3328 2828
z
" transform="scale(0.015625)"/>
       <path id="DejaVuSans-29" d="M 513 4856
L 1013 4856
Q 1481 4119 1714 3412
Q 1947 2706 1947 2009
Q 1947 1309 1714 600
Q 1481 -109 1013 -844
L 513 -844
Q 928 -128 1133 580
Q 1338 1288 1338 2009
Q 1338 2731 1133 3434
Q 928 4138 513 4856
z
" transform="scale(0.015625)"/>
      </defs>
      <use xlink:href="#DejaVuSans-57"/>
      <use xlink:href="#DejaVuSans-61" transform="translate(92.501953 0)"/>
      <use xlink:href="#DejaVuSans-76" transform="translate(153.78125 0)"/>
      <use xlink:href="#DejaVuSans-65" transform="translate(212.960938 0)"/>
      <use xlink:href="#DejaVuSans-6c" transform="translate(274.484375 0)"/>
      <use xlink:href="#DejaVuSans-65" transform="translate(302.267578 0)"/>
      <use xlink:href="#DejaVuSans-6e" transform="translate(363.791016 0)"/>
      <use xlink:href="#DejaVuSans-67" transform="translate(427.169922 0)"/>
      <use xlink:href="#DejaVuSans-74" transform="translate(490.646484 0)"/>
      <use xlink:href="#DejaVuSans-68" transform="translate(529.855469 0)"/>
      <use xlink:href="#DejaVuSans-20" transform="translate(593.234375 0)"/>
      <use xlink:href="#DejaVuSans-28" transform="translate(625.021484 0)"/>
      <use xlink:href="#DejaVuSans-6e" transform="translate(664.035156 0)"/>
      <use xlink:href="#DejaVuSans-6d" transform="translate(727.414062 0)"/>
      <use xlink:href="#DejaVuSans-29" transform="translate(824.826172 0)"/>
     </g>
    </g>
   </g>
   <g id="matplotlib.axis_2">
    <g id="ytick_1">
     <g id="line2d_19">
      <path d="M 59.6 258.910471
L 557.98382 258.910471
" clip-path="url(#pdc8b5c124f)" style="fill: none; stroke: #b0b0b0; stroke-opacity: 0.25; stroke-width: 0.8; stroke-linecap: square"/>
     </g>
     <g id="line2d_20">
      <defs>
       <path id="m254f435da8" d="M 0 0
L -3.5 0
" style="stroke: #000000; stroke-width: 0.8"/>
      </defs>
      <g>
       <use xlink:href="#m254f435da8" x="59.6" y="258.910471" style="stroke: #000000; stroke-width: 0.8"/>
      </g>
     </g>
     <g id="text_11">
      <!-- −20 -->
      <g transform="translate(29.384844 263.089612) scale(0.11 -0.11)">
       <defs>
        <path id="DejaVuSans-2212" d="M 678 2272
L 4684 2272
L 4684 1741
L 678 1741
L 678 2272
z
" transform="scale(0.015625)"/>
       </defs>
       <use xlink:href="#DejaVuSans-2212"/>
       <use xlink:href="#DejaVuSans-32" transform="translate(83.789062 0)"/>
       <use xlink:href="#DejaVuSans-30" transform="translate(147.412109 0)"/>
      </g>
     </g>
    </g>
    <g id="ytick_2">
     <g id="line2d_21">
      <path d="M 59.6 216.444853
L 557.98382 216.444853
" clip-path="url(#pdc8b5c124f)" style="fill: none; stroke: #b0b0b0; stroke-opacity: 0.25; stroke-width: 0.8; stroke-linecap: square"/>
     </g>
     <g id="line2d_22">
      <g>
       <use xlink:href="#m254f435da8" x="59.6" y="216.444853" style="stroke: #000000; stroke-width: 0.8"/>
      </g>
     </g>
     <g id="text_12">
      <!-- −15 -->
      <g transform="translate(29.384844 220.623993) scale(0.11 -0.11)">
       <defs>
        <path id="DejaVuSans-31" d="M 794 531
L 1825 531
L 1825 4091
L 703 3866
L 703 4441
L 1819 4666
L 2450 4666
L 2450 531
L 3481 531
L 3481 0
L 794 0
L 794 531
z
" transform="scale(0.015625)"/>
       </defs>
       <use xlink:href="#DejaVuSans-2212"/>
       <use xlink:href="#DejaVuSans-31" transform="translate(83.789062 0)"/>
       <use xlink:href="#DejaVuSans-35" transform="translate(147.412109 0)"/>
      </g>
     </g>
    </g>
    <g id="ytick_3">
     <g id="line2d_23">
      <path d="M 59.6 173.979234
L 557.98382 173.979234
" clip-path="url(#pdc8b5c124f)" style="fill: none; stroke: #b0b0b0; stroke-opacity: 0.25; stroke-width: 0.8; stroke-linecap: square"/>
     </g>
     <g id="line2d_24">
      <g>
       <use xlink:href="#m254f435da8" x="59.6" y="173.979234" style="stroke: #000000; stroke-width: 0.8"/>
      </g>
     </g>
     <g id="text_13">
      <!-- −10 -->
      <g transform="translate(29.384844 178.158375) scale(0.11 -0.11)">
       <use xlink:href="#DejaVuSans-2212"/>
       <use xlink:href="#DejaVuSans-31" transform="translate(83.789062 0)"/>
       <use xlink:href="#DejaVuSans-30" transform="translate(147.412109 0)"/>
      </g>
     </g>
    </g>
    <g id="ytick_4">
     <g id="line2d_25">
      <path d="M 59.6 131.513616
L 557.98382 131.513616
" clip-path="url(#pdc8b5c124f)" style="fill: none; stroke: #b0b0b0; stroke-opacity: 0.25; stroke-width: 0.8; stroke-linecap: square"/>
     </g>
     <g id="line2d_26">
      <g>
       <use xlink:href="#m254f435da8" x="59.6" y="131.513616" style="stroke: #000000; stroke-width: 0.8"/>
      </g>
     </g>
     <g id="text_14">
      <!-- −5 -->
      <g transform="translate(36.383594 135.692756) scale(0.11 -0.11)">
       <use xlink:href="#DejaVuSans-2212"/>
       <use xlink:href="#DejaVuSans-35" transform="translate(83.789062 0)"/>
      </g>
     </g>
    </g>
    <g id="ytick_5">
     <g id="line2d_27">
      <path d="M 59.6 89.047997
L 557.98382 89.047997
" clip-path="url(#pdc8b5c124f)" style="fill: none; stroke: #b0b0b0; stroke-opacity: 0.25; stroke-width: 0.8; stroke-linecap: square"/>
     </g>
     <g id="line2d_28">
      <g>
       <use xlink:href="#m254f435da8" x="59.6" y="89.047997" style="stroke: #000000; stroke-width: 0.8"/>
      </g>
     </g>
     <g id="text_15">
      <!-- 0 -->
      <g transform="translate(45.60125 93.227138) scale(0.11 -0.11)">
       <use xlink:href="#DejaVuSans-30"/>
      </g>
     </g>
    </g>
    <g id="ytick_6">
     <g id="line2d_29">
      <path d="M 59.6 46.582379
L 557.98382 46.582379
" clip-path="url(#pdc8b5c124f)" style="fill: none; stroke: #b0b0b0; stroke-opacity: 0.25; stroke-width: 0.8; stroke-linecap: square"/>
     </g>
     <g id="line2d_30">
      <g>
       <use xlink:href="#m254f435da8" x="59.6" y="46.582379" style="stroke: #000000; stroke-width: 0.8"/>
      </g>
     </g>
     <g id="text_16">
      <!-- 5 -->
      <g transform="translate(45.60125 50.761519) scale(0.11 -0.11)">
       <use xlink:href="#DejaVuSans-35"/>
      </g>
     </g>
    </g>
    <g id="text_17">
     <!-- $\log_{10}(P_\lambda)$ [a.u.] -->
     <g transform="translate(23.074844 205.35) rotate(-90) scale(0.11 -0.11)">
      <defs>
       <path id="DejaVuSans-6f" d="M 1959 3097
Q 1497 3097 1228 2736
Q 959 2375 959 1747
Q 959 1119 1226 758
Q 1494 397 1959 397
Q 2419 397 2687 759
Q 2956 1122 2956 1747
Q 2956 2369 2687 2733
Q 2419 3097 1959 3097
z
M 1959 3584
Q 2709 3584 3137 3096
Q 3566 2609 3566 1747
Q 3566 888 3137 398
Q 2709 -91 1959 -91
Q 1206 -91 779 398
Q 353 888 353 1747
Q 353 2609 779 3096
Q 1206 3584 1959 3584
z
" transform="scale(0.015625)"/>
       <path id="DejaVuSans-Oblique-50" d="M 1081 4666
L 2541 4666
Q 3178 4666 3512 4369
Q 3847 4072 3847 3500
Q 3847 2731 3353 2303
Q 2859 1875 1966 1875
L 1172 1875
L 806 0
L 172 0
L 1081 4666
z
M 1613 4147
L 1275 2394
L 2069 2394
Q 2606 2394 2893 2669
Q 3181 2944 3181 3456
Q 3181 3784 2986 3965
Q 2791 4147 2438 4147
L 1613 4147
z
" transform="scale(0.015625)"/>
       <path id="DejaVuSans-Oblique-3bb" d="M 2350 4316
L 3125 0
L 2516 0
L 2038 2588
L 328 0
L -281 0
L 1903 3356
L 1794 3975
Q 1725 4369 1391 4369
L 1091 4369
L 1184 4863
L 1550 4856
Q 2253 4847 2350 4316
z
" transform="scale(0.015625)"/>
       <path id="DejaVuSans-5b" d="M 550 4863
L 1875 4863
L 1875 4416
L 1125 4416
L 1125 -397
L 1875 -397
L 1875 -844
L 550 -844
L 550 4863
z
" transform="scale(0.015625)"/>
       <path id="DejaVuSans-2e" d="M 684 794
L 1344 794
L 1344 0
L 684 0
L 684 794
z
" transform="scale(0.015625)"/>
       <path id="DejaVuSans-75" d="M 544 1381
L 544 3500
L 1119 3500
L 1119 1403
Q 1119 906 1312 657
Q 1506 409 1894 409
Q 2359 409 2629 706
Q 2900 1003 2900 1516
L 2900 3500
L 3475 3500
L 3475 0
L 2900 0
L 2900 538
Q 2691 219 2414 64
Q 2138 -91 1772 -91
Q 1169 -91 856 284
Q 544 659 544 1381
z
M 1991 3584
L 1991 3584
z
" transform="scale(0.015625)"/>
       <path id="DejaVuSans-5d" d="M 1947 4863
L 1947 -844
L 622 -844
L 622 -397
L 1369 -397
L 1369 4416
L 622 4416
L 622 4863
L 1947 4863
z
" transform="scale(0.015625)"/>
      </defs>
      <use xlink:href="#DejaVuSans-6c" transform="translate(0 0.015625)"/>
      <use xlink:href="#DejaVuSans-6f" transform="translate(27.783203 0.015625)"/>
      <use xlink:href="#DejaVuSans-67" transform="translate(88.964844 0.015625)"/>
      <use xlink:href="#DejaVuSans-31" transform="translate(153.398438 -16.390625) scale(0.7)"/>
      <use xlink:href="#DejaVuSans-30" transform="translate(197.93457 -16.390625) scale(0.7)"/>
      <use xlink:href="#DejaVuSans-28" transform="translate(261.440754 0.015625)"/>
      <use xlink:href="#DejaVuSans-Oblique-50" transform="translate(300.454426 0.015625)"/>
      <use xlink:href="#DejaVuSans-Oblique-3bb" transform="translate(360.757161 -16.390625) scale(0.7)"/>
      <use xlink:href="#DejaVuSans-29" transform="translate(404.917317 0.015625)"/>
      <use xlink:href="#DejaVuSans-20" transform="translate(443.930989 0.015625)"/>
      <use xlink:href="#DejaVuSans-5b" transform="translate(475.718098 0.015625)"/>
      <use xlink:href="#DejaVuSans-61" transform="translate(514.73177 0.015625)"/>
      <use xlink:href="#DejaVuSans-2e" transform="translate(576.011067 0.015625)"/>
      <use xlink:href="#DejaVuSans-75" transform="translate(607.798176 0.015625)"/>
      <use xlink:href="#DejaVuSans-2e" transform="translate(671.177083 0.015625)"/>
      <use xlink:href="#DejaVuSans-5d" transform="translate(702.964192 0.015625)"/>
     </g>
    </g>
   </g>
   <g id="line2d_31">
    <path d="M 535.33001 288.703636
L 534.77343 143.126716
L 534.21713 138.011479
L 533.661109 135.017237
L 533.105367 132.890641
L 531.994721 129.887072
L 530.885188 127.747431
L 529.776767 126.078945
L 528.116218 124.100717
L 526.458161 122.515181
L 524.251288 120.78038
L 522.048824 119.32759
L 519.301924 117.770396
L 516.014675 116.152023
L 511.646927 114.263754
L 506.211607 112.16588
L 498.647283 109.500326
L 486.865648 105.61323
L 412.291064 81.408972
L 385.329285 72.279532
L 358.581791 62.987663
L 307.11217 44.988601
L 300.860582 43.150896
L 295.97614 41.943114
L 291.997653 41.170996
L 288.474642 40.687572
L 284.964193 40.422953
L 281.466238 40.393158
L 277.980712 40.600062
L 274.507547 41.030945
L 270.614932 41.752785
L 266.307943 42.797002
L 261.164589 44.301734
L 255.198251 46.28932
L 247.15948 49.214334
L 235.433824 53.737871
L 217.701736 60.832959
L 195.094973 70.121887
L 171.852406 79.914993
L 149.178814 89.710217
L 128.536651 98.86015
L 114.179458 105.441216
L 105.818721 109.500326
L 100.407905 112.36639
L 96.46076 114.713945
L 93.60108 116.66762
L 91.462353 118.365491
L 89.684015 120.025747
L 88.263913 121.60437
L 86.846087 123.537315
L 85.784208 125.362815
L 84.723605 127.747431
L 84.017243 129.887072
L 83.311447 132.890641
L 82.95876 135.017237
L 82.606215 138.011479
L 82.25381 143.126716
L 82.25381 143.126716
" clip-path="url(#pdc8b5c124f)" style="fill: none; stroke: #1f77b4; stroke-width: 1.5; stroke-linecap: square"/>
   </g>
   <g id="line2d_32">
    <path d="M 535.33001 54.191279
L 534.77343 52.952738
L 531.439815 53.321762
L 529.222973 53.772412
L 527.01057 54.435614
L 524.802593 55.326512
L 522.599028 56.434088
L 517.109332 59.404293
L 516.014675 59.760636
L 514.921107 59.939806
L 513.828627 59.928658
L 512.737234 59.74351
L 511.102179 59.226101
L 507.296514 57.622051
L 504.045019 56.38667
L 500.803174 55.415656
L 488.998279 52.202594
L 480.492837 49.463911
L 476.792641 48.563702
L 473.631115 48.012999
L 470.478841 47.680982
L 467.335779 47.5769
L 464.201888 47.700293
L 460.557222 48.099259
L 454.337956 49.107016
L 450.726708 49.571161
L 447.641062 49.747072
L 444.052415 49.721215
L 427.296236 49.104061
L 423.273859 48.52082
L 416.770136 47.535507
L 413.781961 47.334662
L 411.298312 47.370906
L 408.820546 47.627742
L 406.348643 48.138686
L 404.375327 48.757272
L 402.40574 49.591054
L 400.439871 50.674588
L 398.477709 52.049441
L 396.519243 53.747747
L 392.613361 57.41903
L 391.639184 57.819912
L 391.152439 57.843613
L 390.179635 57.549417
L 389.207744 56.925213
L 384.845499 53.587434
L 382.912621 52.52597
L 380.983356 51.744333
L 379.057696 51.194546
L 376.655674 50.767225
L 373.780632 50.537815
L 369.959721 50.512041
L 364.254929 50.491109
L 360.469336 50.225574
L 352.002788 49.480428
L 349.196192 49.492381
L 346.397337 49.740025
L 344.070847 50.158303
L 341.749692 50.796207
L 339.433852 51.683459
L 337.584996 52.597733
L 335.739521 53.718253
L 333.897418 55.065004
L 331.599518 57.044728
L 329.306853 59.028881
L 328.39125 59.59679
L 327.47648 59.891741
L 326.562543 59.865664
L 325.649438 59.553656
L 324.281336 58.756676
L 320.642171 56.440003
L 318.827538 55.575654
L 317.016193 54.938133
L 315.208127 54.504045
L 312.952643 54.211275
L 310.70225 54.165408
L 308.456932 54.356181
L 306.66432 54.694353
L 304.874937 55.23577
L 303.088773 56.051574
L 301.751258 56.919344
L 300.415545 58.11232
L 299.526069 59.1726
L 298.637392 60.552078
L 297.749512 62.430614
L 296.862428 65.201903
L 296.419185 67.206299
L 295.97614 69.981259
L 295.533293 73.962
L 295.090645 76.027364
L 294.205944 68.118393
L 293.322035 63.494513
L 292.438916 60.512088
L 291.556587 58.307946
L 290.234573 55.802374
L 288.91433 53.875599
L 287.595855 52.322113
L 285.840631 50.65334
L 284.088536 49.32039
L 282.339559 48.242428
L 280.157713 47.177545
L 277.980712 46.36717
L 275.374683 45.670757
L 272.77558 45.228532
L 270.183376 45.005663
L 267.167819 44.988445
L 264.161571 45.198956
L 260.737203 45.666822
L 255.198251 46.707338
L 249.268466 47.737388
L 245.055098 48.497533
L 242.535897 49.154357
L 240.023279 50.062106
L 237.517218 51.245486
L 230.866251 54.642983
L 229.21071 55.084512
L 227.558034 55.296117
L 225.496207 55.298343
L 223.849951 55.08489
L 222.206536 54.626582
L 220.565956 53.905408
L 218.110382 52.498229
L 214.846134 50.644039
L 212.811673 49.765831
L 211.187245 49.282376
L 209.565603 49.014699
L 207.946739 48.972835
L 206.330645 49.150968
L 203.911683 49.698119
L 202.302485 49.970793
L 201.097389 49.885391
L 200.294848 49.623843
L 199.092319 48.936494
L 197.091519 47.357916
L 195.094973 45.816307
L 193.50079 44.851837
L 191.909315 44.198363
L 190.717482 43.926954
L 189.527165 43.848132
L 188.338361 43.963467
L 187.151068 44.270101
L 185.570355 44.952228
L 181.237157 47.237445
L 180.058867 47.434021
L 178.49013 47.353997
L 176.532926 47.201557
L 175.36058 47.298802
L 174.189713 47.605524
L 173.020323 48.120071
L 169.132983 50.136975
L 167.969958 50.302105
L 164.489643 50.447024
L 163.332448 50.912464
L 162.176704 51.730933
L 161.022408 52.939201
L 159.869557 54.558392
L 158.718149 56.591149
L 156.037124 61.779576
L 155.654758 61.969575
L 155.272551 61.799441
L 154.890504 61.297179
L 154.126886 59.694233
L 152.601554 56.2216
L 151.459219 54.165913
L 150.318306 52.650873
L 149.178814 51.624238
L 148.040739 51.015908
L 146.904079 50.728889
L 143.879883 50.266577
L 142.748388 49.754287
L 138.986854 47.714306
L 137.486582 47.238816
L 135.614718 46.869151
L 133.746704 46.715618
L 132.255058 46.856692
L 131.137932 47.169388
L 129.279111 47.979038
L 128.165649 48.413109
L 127.053555 48.59044
L 125.942829 48.467825
L 121.881816 47.583893
L 120.409608 47.640417
L 118.939802 47.985124
L 116.007376 48.924286
L 115.275762 48.891802
L 114.179458 48.5803
L 112.7198 48.146637
L 111.99086 48.127497
L 111.262514 48.318142
L 110.534758 48.744876
L 109.807594 49.405076
L 107.267162 52.151485
L 106.542648 52.360023
L 105.456977 52.244819
L 104.011466 52.133045
L 102.928868 51.994363
L 102.207865 51.6466
L 100.048349 50.109989
L 99.329673 49.971189
L 98.611577 50.189685
L 97.894059 50.798562
L 97.177121 51.765296
L 96.102796 53.349688
L 95.744976 53.630822
L 95.3873 53.667216
L 95.029768 53.463585
L 94.315137 52.631651
L 93.244267 51.411223
L 92.531071 50.975841
L 91.818449 50.854193
L 91.106399 50.961268
L 89.328776 51.559006
L 88.263913 52.106914
L 87.554716 52.823938
L 86.846087 54.076413
L 86.138026 56.149298
L 85.430532 59.313801
L 85.076998 60.999822
L 84.723605 61.711645
L 84.370354 60.800896
L 83.311447 56.355337
L 82.606215 54.762549
L 82.25381 54.359404
L 82.25381 54.359404
" clip-path="url(#pdc8b5c124f)" style="fill: none; stroke: #ff7f0e; stroke-width: 1.5; stroke-linecap: square"/>
   </g>
   <g id="patch_3">
    <path d="M 59.6 301.12
L 59.6 27.96
" style="fill: none; stroke: #000000; stroke-width: 0.8; stroke-linejoin: miter; stroke-linecap: square"/>
   </g>
   <g id="patch_4">
    <path d="M 557.98382 301.12
L 557.98382 27.96
" style="fill: none; stroke: #000000; stroke-width: 0.8; stroke-linejoin: miter; stroke-linecap: square"/>
   </g>
   <g id="patch_5">
    <path d="M 59.6 301.12
L 557.98382 301.12
" style="fill: none; stroke: #000000; stroke-width: 0.8; stroke-linejoin: miter; stroke-linecap: square"/>
   </g>
   <g id="patch_6">
    <path d="M 59.6 27.96
L 557.98382 27.96
" style="fill: none; stroke: #000000; stroke-width: 0.8; stroke-linejoin: miter; stroke-linecap: square"/>
   </g>
   <g id="text_18">
    <!-- Dispersive-wave spectrum evolution -->
    <g transform="translate(188.354285 21.96) scale(0.132 -0.132)">
     <defs>
      <path id="DejaVuSans-44" d="M 1259 4147
L 1259 519
L 2022 519
Q 2988 519 3436 956
Q 3884 1394 3884 2338
Q 3884 3275 3436 3711
Q 2988 4147 2022 4147
L 1259 4147
z
M 628 4666
L 1925 4666
Q 3281 4666 3915 4102
Q 4550 3538 4550 2338
Q 4550 1131 3912 565
Q 3275 0 1925 0
L 628 0
L 628 4666
z
" transform="scale(0.015625)"/>
      <path id="DejaVuSans-69" d="M 603 3500
L 1178 3500
L 1178 0
L 603 0
L 603 3500
z
M 603 4863
L 1178 4863
L 1178 4134
L 603 4134
L 603 4863
z
" transform="scale(0.015625)"/>
      <path id="DejaVuSans-73" d="M 2834 3397
L 2834 2853
Q 2591 2978 2328 3040
Q 2066 3103 1784 3103
Q 1356 3103 1142 2972
Q 928 2841 928 2578
Q 928 2378 1081 2264
Q 1234 2150 1697 2047
L 1894 2003
Q 2506 1872 2764 1633
Q 3022 1394 3022 966
Q 3022 478 2636 193
Q 2250 -91 1575 -91
Q 1294 -91 989 -36
Q 684 19 347 128
L 347 722
Q 666 556 975 473
Q 1284 391 1588 391
Q 1994 391 2212 530
Q 2431 669 2431 922
Q 2431 1156 2273 1281
Q 2116 1406 1581 1522
L 1381 1569
Q 847 1681 609 1914
Q 372 2147 372 2553
Q 372 3047 722 3315
Q 1072 3584 1716 3584
Q 2034 3584 2315 3537
Q 2597 3491 2834 3397
z
" transform="scale(0.015625)"/>
      <path id="DejaVuSans-70" d="M 1159 525
L 1159 -1331
L 581 -1331
L 581 3500
L 1159 3500
L 1159 2969
Q 1341 3281 1617 3432
Q 1894 3584 2278 3584
Q 2916 3584 3314 3078
Q 3713 2572 3713 1747
Q 3713 922 3314 415
Q 2916 -91 2278 -91
Q 1894 -91 1617 61
Q 1341 213 1159 525
z
M 3116 1747
Q 3116 2381 2855 2742
Q 2594 3103 2138 3103
Q 1681 3103 1420 2742
Q 1159 2381 1159 1747
Q 1159 1113 1420 752
Q 1681 391 2138 391
Q 2594 391 2855 752
Q 3116 1113 3116 1747
z
" transform="scale(0.015625)"/>
      <path id="DejaVuSans-72" d="M 2631 2963
Q 2534 3019 2420 3045
Q 2306 3072 2169 3072
Q 1681 3072 1420 2755
Q 1159 2438 1159 1844
L 1159 0
L 581 0
L 581 3500
L 1159 3500
L 1159 2956
Q 1341 3275 1631 3429
Q 1922 3584 2338 3584
Q 2397 3584 2469 3576
Q 2541 3569 2628 3553
L 2631 2963
z
" transform="scale(0.015625)"/>
      <path id="DejaVuSans-2d" d="M 313 2009
L 1997 2009
L 1997 1497
L 313 1497
L 313 2009
z
" transform="scale(0.015625)"/>
      <path id="DejaVuSans-77" d="M 269 3500
L 844 3500
L 1563 769
L 2278 3500
L 2956 3500
L 3675 769
L 4391 3500
L 4966 3500
L 4050 0
L 3372 0
L 2619 2869
L 1863 0
L 1184 0
L 269 3500
z
" transform="scale(0.015625)"/>
      <path id="DejaVuSans-63" d="M 3122 3366
L 3122 2828
Q 2878 2963 2633 3030
Q 2388 3097 2138 3097
Q 1578 3097 1268 2742
Q 959 2388 959 1747
Q 959 1106 1268 751
Q 1578 397 2138 397
Q 2388 397 2633 464
Q 2878 531 3122 666
L 3122 134
Q 2881 22 2623 -34
Q 2366 -91 2075 -91
Q 1284 -91 818 406
Q 353 903 353 1747
Q 353 2603 823 3093
Q 1294 3584 2113 3584
Q 2378 3584 2631 3529
Q 2884 3475 3122 3366
z
" transform="scale(0.015625)"/>
     </defs>
     <use xlink:href="#DejaVuSans-44"/>
     <use xlink:href="#DejaVuSans-69" transform="translate(77.001953 0)"/>
     <use xlink:href="#DejaVuSans-73" transform="translate(104.785156 0)"/>
     <use xlink:href="#DejaVuSans-70" transform="translate(156.884766 0)"/>
     <use xlink:href="#DejaVuSans-65" transform="translate(220.361328 0)"/>
     <use xlink:href="#DejaVuSans-72" transform="translate(281.884766 0)"/>
     <use xlink:href="#DejaVuSans-73" transform="translate(322.998047 0)"/>
     <use xlink:href="#DejaVuSans-69" transform="translate(375.097656 0)"/>
     <use xlink:href="#DejaVuSans-76" transform="translate(402.880859 0)"/>
     <use xlink:href="#DejaVuSans-65" transform="translate(462.060547 0)"/>
     <use xlink:href="#DejaVuSans-2d" transform="translate(523.583984 0)"/>
     <use xlink:href="#DejaVuSans-77" transform="translate(559.667969 0)"/>
     <use xlink:href="#DejaVuSans-61" transform="translate(641.455078 0)"/>
     <use xlink:href="#DejaVuSans-76" transform="translate(702.734375 0)"/>
     <use xlink:href="#DejaVuSans-65" transform="translate(761.914062 0)"/>
     <use xlink:href="#DejaVuSans-20" transform="translate(823.4375 0)"/>
     <use xlink:href="#DejaVuSans-73" transform="translate(855.224609 0)"/>
     <use xlink:href="#DejaVuSans-70" transform="translate(907.324219 0)"/>
     <use xlink:href="#DejaVuSans-65" transform="translate(970.800781 0)"/>
     <use xlink:href="#DejaVuSans-63" transform="translate(1032.324219 0)"/>
     <use xlink:href="#DejaVuSans-74" transform="translate(1087.304688 0)"/>
     <use xlink:href="#DejaVuSans-72" transform="translate(1126.513672 0)"/>
     <use xlink:href="#DejaVuSans-75" transform="translate(1167.626953 0)"/>
     <use xlink:href="#DejaVuSans-6d" transform="translate(1231.005859 0)"/>
     <use xlink:href="#DejaVuSans-20" transform="translate(1328.417969 0)"/>
     <use xlink:href="#DejaVuSans-65" transform="translate(1360.205078 0)"/>
     <use xlink:href="#DejaVuSans-76" transform="translate(1421.728516 0)"/>
     <use xlink:href="#DejaVuSans-6f" transform="translate(1480.908203 0)"/>
     <use xlink:href="#DejaVuSans-6c" transform="translate(1542.089844 0)"/>
     <use xlink:href="#DejaVuSans-75" transform="translate(1569.873047 0)"/>
     <use xlink:href="#DejaVuSans-74" transform="translate(1633.251953 0)"/>
     <use xlink:href="#DejaVuSans-69" transform="translate(1672.460938 0)"/>
     <use xlink:href="#DejaVuSans-6f" transform="translate(1700.244141 0)"/>
     <use xlink:href="#DejaVuSans-6e" transform="translate(1761.425781 0)"/>
    </g>
   </g>
   <g id="legend_1">
    <g id="patch_7">
     <path d="M 67.3 295.62
L 170.184375 295.62
Q 172.384375 295.62 172.384375 293.42
L 172.384375 262.228125
Q 172.384375 260.028125 170.184375 260.028125
L 67.3 260.028125
Q 65.1 260.028125 65.1 262.228125
L 65.1 293.42
Q 65.1 295.62 67.3 295.62
z
" style="fill: #ffffff; opacity: 0.8; stroke: #cccccc; stroke-linejoin: miter"/>
    </g>
    <g id="line2d_33">
     <path d="M 69.5 268.936406
L 80.5 268.936406
L 91.5 268.936406
" style="fill: none; stroke: #1f77b4; stroke-width: 1.5; stroke-linecap: square"/>
    </g>
    <g id="text_19">
     <!-- z = 0 -->
     <g transform="translate(100.3 272.786406) scale(0.11 -0.11)">
      <defs>
       <path id="DejaVuSans-7a" d="M 353 3500
L 3084 3500
L 3084 2975
L 922 459
L 3084 459
L 3084 0
L 275 0
L 275 525
L 2438 3041
L 353 3041
L 353 3500
z
" transform="scale(0.015625)"/>
       <path id="DejaVuSans-3d" d="M 678 2906
L 4684 2906
L 4684 2381
L 678 2381
L 678 2906
z
M 678 1631
L 4684 1631
L 4684 1100
L 678 1100
L 678 1631
z
" transform="scale(0.015625)"/>
      </defs>
      <use xlink:href="#DejaVuSans-7a"/>
      <use xlink:href="#DejaVuSans-20" transform="translate(52.490234 0)"/>
      <use xlink:href="#DejaVuSans-3d" transform="translate(84.277344 0)"/>
      <use xlink:href="#DejaVuSans-20" transform="translate(168.066406 0)"/>
      <use xlink:href="#DejaVuSans-30" transform="translate(199.853516 0)"/>
     </g>
    </g>
    <g id="line2d_34">
     <path d="M 69.5 285.082344
L 80.5 285.082344
L 91.5 285.082344
" style="fill: none; stroke: #ff7f0e; stroke-width: 1.5; stroke-linecap: square"/>
    </g>
    <g id="text_20">
     <!-- z = 0.150 m -->
     <g transform="translate(100.3 288.932344) scale(0.11 -0.11)">
      <use xlink:href="#DejaVuSans-7a"/>
      <use xlink:href="#DejaVuSans-20" transform="translate(52.490234 0)"/>
      <use xlink:href="#DejaVuSans-3d" transform="translate(84.277344 0)"/>
      <use xlink:href="#DejaVuSans-20" transform="translate(168.066406 0)"/>
      <use xlink:href="#DejaVuSans-30" transform="translate(199.853516 0)"/>
      <use xlink:href="#DejaVuSans-2e" transform="translate(263.476562 0)"/>
      <use xlink:href="#DejaVuSans-31" transform="translate(295.263672 0)"/>
      <use xlink:href="#DejaVuSans-35" transform="translate(358.886719 0)"/>
      <use xlink:href="#DejaVuSans-30" transform="translate(422.509766 0)"/>
      <use xlink:href="#DejaVuSans-20" transform="translate(486.132812 0)"/>
      <use xlink:href="#DejaVuSans-6d" transform="translate(517.919922 0)"/>
     </g>
    </g>
   </g>
  </g>
 </g>
 <defs>
  <clipPath id="pdc8b5c124f">
   <rect x="59.6" y="27.96" width="498.38382" height="273.16"/>
  </clipPath>
 </defs>
</svg>
